<svg id="Capa_1" data-name="Capa 1" xmlns="http://www.w3.org/2000/svg" viewBox="0 0 140.22 140.22"><defs><style>.cls-1{fill:#1a2930;}</style></defs><title>instagram</title><path class="cls-1" d="M284.25,151.64a5.4,5.4,0,0,1-5.39-5.39V135.46a5.4,5.4,0,0,1,5.39-5.39H295a5.4,5.4,0,0,1,5.39,5.39v10.79a5.4,5.4,0,0,1-5.39,5.39Z" transform="translate(-176.39 -113.89)"/><path class="cls-1" d="M246.5,151.64A32.36,32.36,0,1,1,214.14,184a32.36,32.36,0,0,1,32.36-32.36m0-10.78A43.14,43.14,0,1,0,289.64,184a43.19,43.19,0,0,0-43.14-43.14Z" transform="translate(-176.39 -113.89)"/><circle class="cls-1" cx="70.21" cy="70.05" r="20.56"/><path class="cls-1" d="M290.32,113.89H202.68a26.29,26.29,0,0,0-26.29,26.29v87.64a26.29,26.29,0,0,0,26.29,26.29h87.64a26.29,26.29,0,0,0,26.29-26.29V140.18A26.29,26.29,0,0,0,290.32,113.89Zm15.5,48.54H270.57a32.36,32.36,0,1,1-48.14,0H187.18V140.18a15.51,15.51,0,0,1,15.5-15.5h87.64a15.51,15.51,0,0,1,15.5,15.5Z" transform="translate(-176.39 -113.89)"/></svg>