<svg id="Capa_1" data-name="Capa 1" xmlns="http://www.w3.org/2000/svg" viewBox="0 0 97.75 97.75"><defs><style>.cls-1{fill:#1a2930;}</style></defs><path class="cls-1" d="M48.88,0A48.88,48.88,0,1,0,97.75,48.88,48.87,48.87,0,0,0,48.88,0ZM54.5,65.11c-4.52,0-8.77-2.44-10.23-5.22,0,0-2.43,9.65-2.94,11.51C39.51,78,34.18,84.56,33.77,85.1a.56.56,0,0,1-1-.24C32.66,84,31.3,75.72,32.9,69l5.38-22.82A16.13,16.13,0,0,1,37,39.51C37,33.3,40.54,28.67,45,28.67c3.81,0,5.65,2.86,5.65,6.29,0,3.83-2.44,9.55-3.7,14.85-1,4.45,2.23,8.07,6.61,8.07,7.93,0,13.27-10.19,13.27-22.26,0-9.18-6.18-16-17.42-16-12.69,0-20.61,9.47-20.61,20.06a12.12,12.12,0,0,0,2.76,8.21,2,2,0,0,1,.6,2.33c-.2.77-.66,2.62-.85,3.36a1.45,1.45,0,0,1-2.1,1c-5.84-2.39-8.57-8.8-8.57-16,0-11.89,10-26.15,29.92-26.15,16,0,26.51,11.56,26.51,24C77.09,52.84,68,65.11,54.5,65.11Z" transform="translate(0 0)"/></svg>